<svg xmlns="http://www.w3.org/2000/svg" width="512" height="512" viewBox="0 0 512 512" version="1.1"><path d="M 276 248.558 C 274.625 248.795, 270.350 249.497, 266.500 250.118 C 165.239 266.458, 133.223 401.366, 215.854 463.527 C 309.622 534.066, 438.853 440.679, 401.491 329.380 C 384.294 278.150, 325.208 240.096, 276 248.558 M 280 272.421 L 280 280.841 276.750 281.531 C 222.532 293.039, 231.104 370.525, 287.201 375.997 C 308.140 378.040, 319.570 389.206, 319.446 407.500 C 319.180 446.765, 262.231 451.063, 256.411 412.257 L 255.773 408 247.886 408 L 240 408 240 410.790 C 240 428.830, 258.645 450.979, 276.906 454.631 L 280 455.250 280 463.625 L 280 472 288 472 L 296 472 296 463.579 L 296 455.159 299.250 454.479 C 353.227 443.186, 344.730 365.339, 288.947 360.090 C 262.201 357.574, 248.777 336.409, 260 314.450 C 274.356 286.362, 314.932 292.690, 319.589 323.743 L 320.227 328 328.251 328 L 336.275 328 335.631 322.521 C 333.454 303.994, 318.264 286.369, 300.651 281.934 L 296 280.763 296 272.381 L 296 264 288 264 L 280 264 280 272.421" stroke="none" fill="#f3b3b3" fill-rule="evenodd"/><path d="M 392.500 10.033 C 332.087 22.734, 296 69.748, 296 135.752 C 296 155.420, 295.879 156.800, 294 158.500 C 292.741 159.639, 292 159.856, 292 159.085 C 292 145.897, 266.298 113.920, 246.178 102.075 C 237.349 96.878, 236.610 96.163, 228.540 84.999 C 205.475 53.091, 183.080 40.014, 151.500 40.014 C 126.372 40.014, 117.749 43.934, 81.544 71.816 C 47.204 98.262, 46.984 93.660, 83.933 121.934 C 137.468 162.901, 189.699 163.024, 226.892 122.271 L 233.984 114.500 238.419 116.850 C 268.119 132.589, 279.976 158.914, 279.992 209.152 L 280 231.804 273.750 232.499 C 104.603 251.319, 117.863 503.461, 288 503.461 C 458.147 503.461, 471.335 251.322, 302.173 232.490 L 295.846 231.786 296.173 207.643 C 296.535 180.988, 296.776 179.881, 304.020 171.630 L 307.027 168.205 331.264 167.756 C 394.223 166.590, 437.444 134.332, 452.767 77.074 C 456.643 62.589, 457.481 14.205, 453.921 10.416 L 451.651 8 426.576 8.070 C 406.011 8.128, 399.881 8.481, 392.500 10.033 M 404.678 25.092 C 350.647 30.798, 312.172 76.017, 312.017 133.995 L 312 140.490 349.258 103.242 L 386.516 65.994 392.261 71.739 L 398.006 77.484 360.758 114.742 L 323.510 152 330.005 151.983 C 397.373 151.803, 439.882 107.069, 439.983 36.250 L 440 24 426.250 24.133 C 418.688 24.206, 408.980 24.638, 404.678 25.092 M 142.972 56.938 C 128.359 58.923, 120.897 62.838, 97.110 81 C 74.448 98.302, 74.540 93.791, 96.508 110.500 C 139.147 142.931, 178.503 144.754, 209.573 115.738 C 221.218 104.863, 220.776 104.743, 167.250 104.231 L 128 103.856 128 95.896 L 128 87.936 169 88.218 C 191.551 88.373, 210.001 88.217, 210 87.872 C 210 87.526, 207.049 84.056, 203.441 80.160 C 187.296 62.721, 164.590 54.001, 142.972 56.938 M 276 248.558 C 274.625 248.795, 270.350 249.497, 266.500 250.118 C 165.239 266.458, 133.223 401.366, 215.854 463.527 C 309.622 534.066, 438.853 440.679, 401.491 329.380 C 384.294 278.150, 325.208 240.096, 276 248.558 M 280 272.421 L 280 280.841 276.750 281.531 C 222.532 293.039, 231.104 370.525, 287.201 375.997 C 308.140 378.040, 319.570 389.206, 319.446 407.500 C 319.180 446.765, 262.231 451.063, 256.411 412.257 L 255.773 408 247.886 408 L 240 408 240 410.790 C 240 428.830, 258.645 450.979, 276.906 454.631 L 280 455.250 280 463.625 L 280 472 288 472 L 296 472 296 463.579 L 296 455.159 299.250 454.479 C 353.227 443.186, 344.730 365.339, 288.947 360.090 C 262.201 357.574, 248.777 336.409, 260 314.450 C 274.356 286.362, 314.932 292.690, 319.589 323.743 L 320.227 328 328.251 328 L 336.275 328 335.631 322.521 C 333.454 303.994, 318.264 286.369, 300.651 281.934 L 296 280.763 296 272.381 L 296 264 288 264 L 280 264 280 272.421" stroke="none" fill="#b4444c" fill-rule="evenodd"/></svg>